<?xml version="1.0" encoding="utf-8"?>
<!-- Generator: Adobe Illustrator 19.1.0, SVG Export Plug-In . SVG Version: 6.00 Build 0)  -->
<!DOCTYPE svg PUBLIC "-//W3C//DTD SVG 1.1//EN" "http://www.w3.org/Graphics/SVG/1.1/DTD/svg11.dtd">
<svg version="1.1" id="svg2" xmlns="http://www.w3.org/2000/svg" xmlns:xlink="http://www.w3.org/1999/xlink" x="0px" y="0px"
	 viewBox="510.3 64.5 296.3 296.2" enable-background="new 510.3 64.5 296.3 296.2" xml:space="preserve">
<g>
	<g>
	</g>
	<g>
	</g>
	<g>
	</g>
	<g>
	</g>
</g>
<g>
	<defs>
		<path id="SVGID_1_" d="M510.5,65.1v295h296v-295H510.5z M658.5,320.6c-59.6,0-108-48.4-108-108c0-59.6,48.4-108,108-108
			c59.6,0,108,48.4,108,108C766.5,272.2,718.1,320.6,658.5,320.6z"/>
	</defs>
	<clipPath id="SVGID_2_">
		<use xlink:href="#SVGID_1_"  overflow="visible"/>
	</clipPath>
	<g clip-path="url(#SVGID_2_)">
		<g>
			<g>
				<path fill="#FFB466" d="M658.5,212.6L612.8,71.8c15.6-5.1,29.4-7.2,45.7-7.2V212.6z"/>
			</g>
		</g>
		<g>
			<g>
				<path fill="#FF8200" d="M658.5,212.6L533,134.1c19.1-30.5,45.6-51.2,79.8-62.3L658.5,212.6z"/>
			</g>
		</g>
		<g>
			<g>
				<path fill="#7CC576" d="M658.5,212.6L596,346.7c-74.1-34.6-106.2-122.6-71.6-196.7c2.8-5.9,5.2-10.3,8.6-15.9L658.5,212.6z"/>
			</g>
		</g>
		<g>
			<g>
				<path fill="#00913C" d="M658.5,212.6v-148c81.8,0,148,66.3,148,148s-66.3,148-148,148c-22.9,0-41.8-4.2-62.6-13.9L658.5,212.6z"
					/>
			</g>
		</g>
	</g>
</g>
</svg>
