<?xml version="1.0" encoding="utf-8"?>
<!-- Generator: Adobe Illustrator 19.1.0, SVG Export Plug-In . SVG Version: 6.00 Build 0)  -->
<!DOCTYPE svg PUBLIC "-//W3C//DTD SVG 1.1//EN" "http://www.w3.org/Graphics/SVG/1.1/DTD/svg11.dtd">
<svg version="1.1" id="svg2" xmlns="http://www.w3.org/2000/svg" xmlns:xlink="http://www.w3.org/1999/xlink" x="0px" y="0px"
	 viewBox="510.3 64.5 296.3 296.2" enable-background="new 510.3 64.5 296.3 296.2" xml:space="preserve">
<g>
	<defs>
		<path id="SVGID_1_" d="M510.5,65.1v295h296v-295H510.5z M658.5,320.6c-59.6,0-108-48.4-108-108c0-59.6,48.4-108,108-108
			c59.6,0,108,48.4,108,108C766.5,272.2,718.1,320.6,658.5,320.6z"/>
	</defs>
	<clipPath id="SVGID_2_">
		<use xlink:href="#SVGID_1_"  overflow="visible"/>
	</clipPath>
	<g clip-path="url(#SVGID_2_)">
		<g>
			<g>
				<path fill="#00913C" d="M658.5,212.5L804.7,192C816,272.7,759.8,347.4,679,358.7s-155.4-44.9-166.7-125.6
					C501,152.4,557.2,77.7,638,66.4c6.5-0.9,14-1.4,20.5-1.4V212.5z"/>
			</g>
		</g>
		<g>
			<g>
				<path fill="#7CC576" d="M658.5,212.5V64.9c75,0,135.7,52.8,146.2,127.1L658.5,212.5z"/>
			</g>
		</g>
	</g>
</g>
</svg>
